<svg width="22" height="25" viewBox="0 0 22 25" fill="none" xmlns="http://www.w3.org/2000/svg">
<g clip-path="url(#clip0_29_2)">
<path d="M7.82277 0.26344C8.2058 -0.093005 8.8 -0.0881222 9.18304 0.268323C10.5384 1.53297 11.8103 2.89528 12.9987 4.36989C13.5388 3.66676 14.1527 2.90016 14.8156 2.27516C15.2036 1.91383 15.8027 1.91383 16.1906 2.28004C17.8897 3.89137 19.3286 6.02028 20.3402 8.04176C21.3371 10.0339 22 12.0701 22 13.5056C22 19.7361 17.0991 24.9998 11 24.9998C4.83214 24.9998 0 19.7312 0 13.5007C0 11.6257 0.874107 9.33571 2.22946 7.07008C3.59955 4.77028 5.53438 2.37282 7.82277 0.26344ZM11.0835 20.3123C12.3259 20.3123 13.4259 19.9705 14.4621 19.2869C16.5295 17.8513 17.0844 14.9802 15.842 12.7244C15.621 12.2849 15.0562 12.2556 14.7371 12.6267L13.4996 14.0574C13.1754 14.4285 12.5911 14.4187 12.2866 14.033C11.4763 13.0076 10.0277 11.1765 9.20268 10.1365C8.8933 9.74586 8.30402 9.74098 7.98973 10.1316C6.32991 12.2068 5.49509 13.5154 5.49509 14.9851C5.5 18.3298 7.98482 20.3123 11.0835 20.3123Z" fill="#FF6B00"/>
</g>
<defs>
<clipPath id="clip0_29_2">
<rect width="22" height="25" fill="white"/>
</clipPath>
</defs>
</svg>
